<?xml version="1.0" standalone="no"?>
<!DOCTYPE svg PUBLIC "-//W3C//DTD SVG 20010904//EN"
 "http://www.w3.org/TR/2001/REC-SVG-20010904/DTD/svg10.dtd">
<svg version="1.0" xmlns="http://www.w3.org/2000/svg"
 width="329.000000pt" height="329.000000pt" viewBox="0 0 329.000000 329.000000"
 preserveAspectRatio="xMidYMid meet">
<metadata>
Created by potrace 1.11, written by Peter Selinger 2001-2013
</metadata>
<g transform="translate(0.000000,329.000000) scale(0.100000,-0.100000)"
fill="#000000" stroke="none">
<path d="M1630 3208 c-53 -98 -271 -422 -300 -448 -3 -3 -30 -36 -60 -75 -30
-38 -57 -72 -60 -75 -7 -6 -225 -260 -314 -364 -37 -45 -81 -96 -97 -114 -16
-17 -65 -79 -109 -137 -230 -306 -316 -539 -305 -826 4 -119 6 -134 32 -239
45 -185 157 -382 298 -525 259 -263 672 -408 1033 -362 57 8 234 46 240 52 2
2 -7 6 -20 10 -13 4 -57 23 -98 43 -250 119 -429 323 -506 577 -25 80 -28 106
-28 240 -1 162 14 244 70 379 36 87 125 261 173 340 23 36 41 71 41 76 0 6 5
10 10 10 6 0 10 5 10 10 0 6 27 56 61 111 123 204 238 431 303 595 56 144 56
132 -12 226 -52 72 -114 166 -147 220 -31 52 -143 249 -159 281 -11 20 -22 37
-26 37 -3 0 -17 -19 -30 -42z"/>
<path d="M2146 2479 c-3 -8 -10 -34 -16 -59 -6 -25 -21 -74 -33 -110 -11 -36
-22 -67 -22 -70 -1 -3 -5 -14 -10 -25 -4 -11 -23 -58 -42 -105 -19 -47 -96
-204 -171 -350 -203 -396 -217 -426 -254 -550 -27 -92 -33 -141 -32 -255 2
-169 62 -309 193 -448 112 -118 275 -221 439 -278 59 -20 66 -19 142 33 82 56
138 107 118 108 -38 0 -167 87 -244 164 -135 135 -205 291 -207 461 0 50 2
108 6 130 10 60 51 201 79 275 152 387 209 560 232 700 3 19 9 55 14 81 l9 45
-89 125 c-104 145 -106 147 -112 128z"/>
<path d="M2429 2114 c-1 -5 -3 -20 -4 -34 -6 -73 -16 -169 -21 -195 -15 -89
-36 -194 -44 -225 -5 -19 -11 -46 -14 -60 -2 -14 -16 -72 -30 -130 -75 -313
-81 -480 -21 -630 49 -121 174 -238 309 -290 21 -8 27 -4 54 38 73 113 142
275 156 366 4 21 8 41 10 45 8 13 19 139 18 213 -3 187 -92 426 -256 683 -70
111 -156 230 -157 219z"/>
</g>
</svg>
