<svg xmlns="http://www.w3.org/2000/svg" width="62" height="41" viewBox="0 0 62 40.7"><style>.a{fill:#303030;}.b{fill:#FFF;}</style><path d="M11.8 25.5c-0.1 0-0.2 0-0.2 0.1 -0.1 0.1-0.1 0.1-0.1 0.2v2.1c0 0.1 0 0.1 0.1 0.2 0.1 0.1 0.1 0.1 0.2 0.1 0.1 0 0.2 0 0.2-0.1 0.1 0 0.1-0.1 0.1-0.2v-2.1c0-0.1 0-0.1-0.1-0.2C12 25.5 11.9 25.5 11.8 25.5z" class="a"/><path d="M14.3 25.5c-0.1 0-0.2 0-0.2 0.1 -0.1 0.1-0.1 0.1-0.1 0.2v2.1c0 0.1 0 0.1 0.1 0.2 0.1 0.1 0.1 0.1 0.2 0.1 0.1 0 0.2 0 0.2-0.1 0.1 0 0.1-0.1 0.1-0.2v-2.1c0-0.1 0-0.1-0.1-0.2C14.5 25.5 14.4 25.5 14.3 25.5z" class="a"/><path d="M10.1 16.2c-0.2-0.6-0.4-1.1-0.5-1.7H7.3v1.7H10.1z" class="a"/><path d="M9.5 11.8H7.3v1.7h2.1C9.4 12.9 9.4 12.4 9.5 11.8z" class="a"/><path d="M6.8 28.1c0.1 0 0.2 0 0.2-0.1 0.1 0 0.1-0.1 0.1-0.2v-2.1c0-0.1 0-0.1-0.1-0.2 -0.1 0-0.1-0.1-0.2-0.1 -0.1 0-0.2 0-0.2 0.1 -0.1 0.1-0.1 0.1-0.1 0.2v2.1c0 0.1 0 0.1 0.1 0.2C6.7 28.1 6.7 28.1 6.8 28.1z" class="a"/><path d="M31.8 25.5c-0.1 0-0.2 0-0.2 0.1 -0.1 0.1-0.1 0.1-0.1 0.2v2.1c0 0.1 0 0.1 0.1 0.2 0.1 0.1 0.1 0.1 0.2 0.1 0.1 0 0.2 0 0.2-0.1 0.1 0 0.1-0.1 0.1-0.2v-2.1c0-0.1 0-0.1-0.1-0.2C32 25.5 31.9 25.5 31.8 25.5z" class="a"/><path d="M34.3 25.5c-0.1 0-0.2 0-0.2 0.1C34 25.6 34 25.6 34 25.7v2.1c0 0.1 0 0.1 0.1 0.2 0.1 0.1 0.1 0.1 0.2 0.1 0.1 0 0.2 0 0.2-0.1 0.1 0 0.1-0.1 0.1-0.2v-2.1c0-0.1 0-0.1-0.1-0.2C34.5 25.5 34.4 25.5 34.3 25.5z" class="a"/><path d="M9.9 9.9H8.6c-0.6 0-1 0.4-1.2 0.9h2.2C9.7 10.5 9.8 10.2 9.9 9.9z" class="a"/><path d="M9.3 25.5c-0.1 0-0.2 0-0.2 0.1 -0.1 0.1-0.1 0.1-0.1 0.2v2.1c0 0.1 0 0.1 0.1 0.2 0.1 0.1 0.1 0.1 0.2 0.1 0.1 0 0.2 0 0.2-0.1 0.1 0 0.1-0.1 0.1-0.2v-2.1c0-0.1 0-0.1-0.1-0.2C9.5 25.5 9.4 25.5 9.3 25.5z" class="a"/><path d="M16.9 10.8c-0.2-0.5-0.6-0.9-1.2-0.9h-1c0.1 0.2 0.2 0.5 0.2 0.9H16.9z" class="a"/><path d="M21.8 28.1c0.1 0 0.2 0 0.2-0.1 0.1 0 0.1-0.1 0.1-0.2v-2.1c0-0.1 0-0.1-0.1-0.2 -0.1 0-0.1-0.1-0.2-0.1 -0.1 0-0.2 0-0.2 0.1 -0.1 0.1-0.1 0.1-0.1 0.2v2.1c0 0.1 0 0.1 0.1 0.2C21.7 28.1 21.7 28.1 21.8 28.1z" class="a"/><path d="M24.3 28.1c0.1 0 0.2 0 0.2-0.1 0.1 0 0.1-0.1 0.1-0.2v-2.1c0-0.1 0-0.1-0.1-0.2 -0.1 0-0.1-0.1-0.2-0.1 -0.1 0-0.2 0-0.2 0.1 -0.1 0.1-0.1 0.1-0.1 0.2v2.1c0 0.1 0 0.1 0.1 0.2C24.2 28.1 24.2 28.1 24.3 28.1z" class="a"/><path d="M10.5 14c0.1 0.8 0.4 1.5 0.7 2.3h2c0.3-0.7 0.6-1.5 0.7-2.3 0.1-0.9 0.1-1.7 0-2.6 -0.1-0.6-0.3-1.1-0.4-1.5h-2.6c-0.1 0.4-0.3 0.8-0.4 1.5C10.4 12.2 10.4 13.1 10.5 14z" class="a"/><path d="M8.6 18.2h7.1c0.6 0 1-0.4 1.2-0.9H7.4C7.6 17.8 8 18.2 8.6 18.2z" class="a"/><path d="M26.8 28.1c0.1 0 0.2 0 0.2-0.1 0.1 0 0.1-0.1 0.1-0.2v-2.1c0-0.1 0-0.1-0.1-0.2 -0.1 0-0.1-0.1-0.2-0.1 -0.1 0-0.2 0-0.2 0.1 -0.1 0.1-0.1 0.1-0.1 0.2v2.1c0 0.1 0 0.1 0.1 0.2C26.7 28.1 26.7 28.1 26.8 28.1z" class="a"/><path d="M36.8 25.5c-0.1 0-0.2 0-0.2 0.1 -0.1 0.1-0.1 0.1-0.1 0.2v2.1c0 0.1 0 0.1 0.1 0.2 0.1 0.1 0.1 0.1 0.2 0.1 0.1 0 0.2 0 0.2-0.1 0.1 0 0.1-0.1 0.1-0.2v-2.1c0-0.1 0-0.1-0.1-0.2C37 25.5 36.9 25.5 36.8 25.5z" class="a"/><path d="M15.1 13.5h1.9V11.8h-1.9C15.1 12.4 15.1 12.9 15.1 13.5z" class="a"/><path d="M14.4 16.2h2.6v-1.7h-2.1C14.8 15.1 14.6 15.7 14.4 16.2z" class="a"/><path d="M19.3 28.1c0.1 0 0.2 0 0.2-0.1 0.1 0 0.1-0.1 0.1-0.2v-2.1c0-0.1 0-0.1-0.1-0.2 -0.1 0-0.1-0.1-0.2-0.1 -0.1 0-0.2 0-0.2 0.1 -0.1 0.1-0.1 0.1-0.1 0.2v2.1c0 0.1 0 0.1 0.1 0.2C19.2 28.1 19.2 28.1 19.3 28.1z" class="a"/><path d="M49.3 28.1c0.1 0 0.2 0 0.2-0.1 0.1 0 0.1-0.1 0.1-0.2v-2.1c0-0.1 0-0.1-0.1-0.2 -0.1 0-0.1-0.1-0.2-0.1 -0.1 0-0.2 0-0.2 0.1 -0.1 0.1-0.1 0.1-0.1 0.2v2.1c0 0.1 0 0.1 0.1 0.2C49.2 28.1 49.2 28.1 49.3 28.1z" class="a"/><path d="M44.3 28.1c0.1 0 0.2 0 0.2-0.1 0.1 0 0.1-0.1 0.1-0.2v-2.1c0-0.1 0-0.1-0.1-0.2 -0.1 0-0.1-0.1-0.2-0.1 -0.1 0-0.2 0-0.2 0.1 -0.1 0.1-0.1 0.1-0.1 0.2v2.1c0 0.1 0 0.1 0.1 0.2C44.2 28.1 44.2 28.1 44.3 28.1z" class="a"/><path d="M46.8 28.1c0.1 0 0.2 0 0.2-0.1 0.1 0 0.1-0.1 0.1-0.2v-2.1c0-0.1 0-0.1-0.1-0.2 -0.1 0-0.1-0.1-0.2-0.1 -0.1 0-0.2 0-0.2 0.1 -0.1 0.1-0.1 0.1-0.1 0.2v2.1c0 0.1 0 0.1 0.1 0.2C46.7 28.1 46.7 28.1 46.8 28.1z" class="a"/><path d="M53.5 32.6c-0.2 0.5-0.4 1-0.6 1.5 0.3 0 0.6 0 0.9 0 -0.1-0.5-0.2-1-0.3-1.5C53.5 32.6 53.5 32.6 53.5 32.6z" class="a"/><path d="M51.8 28.1c0.1 0 0.2 0 0.2-0.1 0.1 0 0.1-0.1 0.1-0.2v-2.1c0-0.1 0-0.1-0.1-0.2 -0.1 0-0.1-0.1-0.2-0.1 -0.1 0-0.2 0-0.2 0.1 -0.1 0.1-0.1 0.1-0.1 0.2v2.1c0 0.1 0 0.1 0.1 0.2C51.7 28.1 51.7 28.1 51.8 28.1z" class="a"/><path d="M39.3 25.5c-0.1 0-0.2 0-0.2 0.1C39 25.6 39 25.6 39 25.7v2.1c0 0.1 0 0.1 0.1 0.2 0.1 0.1 0.1 0.1 0.2 0.1 0.1 0 0.2 0 0.2-0.1 0.1 0 0.1-0.1 0.1-0.2v-2.1c0-0.1 0-0.1-0.1-0.2C39.5 25.5 39.4 25.5 39.3 25.5z" class="a"/><path d="M57.1 0H4.9C2.2 0 0 2.2 0 4.9v30.9c0 2.7 2.2 4.9 4.9 4.9h52.2c2.7 0 4.9-2.2 4.9-4.9V4.9C62 2.2 59.8 0 57.1 0zM27.4 32.8c0.4 0 0.8 0.3 0.8 0.8s-0.3 0.8-0.8 0.8H6.6c-0.4 0-0.8-0.3-0.8-0.8s0.3-0.8 0.8-0.8H27.4zM18.3 27.8v-2.1c0-0.1 0-0.2 0.1-0.3 0.1-0.1 0.1-0.2 0.2-0.2 0.1-0.1 0.2-0.1 0.3-0.2 0.1 0 0.3-0.1 0.4-0.1 0.1 0 0.3 0 0.4 0.1 0.1 0 0.2 0.1 0.3 0.2 0.1 0.1 0.2 0.1 0.2 0.2 0.1 0.1 0.1 0.2 0.1 0.3v2.1c0 0.1 0 0.2-0.1 0.3 -0.1 0.1-0.1 0.2-0.2 0.2 -0.1 0.1-0.2 0.1-0.3 0.2 -0.1 0-0.3 0.1-0.4 0.1 -0.1 0-0.3 0-0.4-0.1 -0.1 0-0.2-0.1-0.3-0.2 -0.1-0.1-0.2-0.1-0.2-0.2C18.3 28 18.3 27.9 18.3 27.8zM20.8 27.8v-2.1c0-0.1 0-0.2 0.1-0.3 0.1-0.1 0.1-0.2 0.2-0.2 0.1-0.1 0.2-0.1 0.3-0.2 0.1 0 0.3-0.1 0.4-0.1 0.1 0 0.3 0 0.4 0.1 0.1 0 0.2 0.1 0.3 0.2 0.1 0.1 0.2 0.1 0.2 0.2 0.1 0.1 0.1 0.2 0.1 0.3v2.1c0 0.1 0 0.2-0.1 0.3 -0.1 0.1-0.1 0.2-0.2 0.2 -0.1 0.1-0.2 0.1-0.3 0.2 -0.1 0-0.3 0.1-0.4 0.1 -0.1 0-0.3 0-0.4-0.1 -0.1 0-0.2-0.1-0.3-0.2 -0.1-0.1-0.2-0.1-0.2-0.2C20.8 28 20.8 27.9 20.8 27.8zM23.3 27.8v-2.1c0-0.1 0-0.2 0.1-0.3 0.1-0.1 0.1-0.2 0.2-0.2 0.1-0.1 0.2-0.1 0.3-0.2 0.1 0 0.3-0.1 0.4-0.1 0.1 0 0.3 0 0.4 0.1 0.1 0 0.2 0.1 0.3 0.2 0.1 0.1 0.2 0.1 0.2 0.2 0.1 0.1 0.1 0.2 0.1 0.3v2.1c0 0.1 0 0.2-0.1 0.3 -0.1 0.1-0.1 0.2-0.2 0.2 -0.1 0.1-0.2 0.1-0.3 0.2 -0.1 0-0.3 0.1-0.4 0.1 -0.1 0-0.3 0-0.4-0.1 -0.1 0-0.2-0.1-0.3-0.2 -0.1-0.1-0.2-0.1-0.2-0.2C23.3 28 23.3 27.9 23.3 27.8zM25.8 27.8v-2.1c0-0.1 0-0.2 0.1-0.3 0.1-0.1 0.1-0.2 0.2-0.2 0.1-0.1 0.2-0.1 0.3-0.2 0.1 0 0.3-0.1 0.4-0.1 0.1 0 0.3 0 0.4 0.1 0.1 0 0.2 0.1 0.3 0.2 0.1 0.1 0.2 0.1 0.2 0.2 0.1 0.1 0.1 0.2 0.1 0.3v2.1c0 0.1 0 0.2-0.1 0.3 -0.1 0.1-0.1 0.2-0.2 0.2 -0.1 0.1-0.2 0.1-0.3 0.2 -0.1 0-0.3 0.1-0.4 0.1 -0.1 0-0.3 0-0.4-0.1 -0.1 0-0.2-0.1-0.3-0.2 -0.1-0.1-0.2-0.1-0.2-0.2C25.8 28 25.8 27.9 25.8 27.8zM8.3 27.8v-2.1c0-0.1 0-0.2 0.1-0.3 0.1-0.1 0.1-0.2 0.2-0.2 0.1-0.1 0.2-0.1 0.3-0.2 0.1 0 0.3-0.1 0.4-0.1 0.1 0 0.3 0 0.4 0.1 0.1 0 0.2 0.1 0.3 0.2 0.1 0.1 0.2 0.1 0.2 0.2 0.1 0.1 0.1 0.2 0.1 0.3v2.1c0 0.1 0 0.2-0.1 0.3 -0.1 0.1-0.1 0.2-0.2 0.2 -0.1 0.1-0.2 0.1-0.3 0.2 -0.1 0-0.3 0.1-0.4 0.1 -0.1 0-0.3 0-0.4-0.1 -0.1 0-0.2-0.1-0.3-0.2 -0.1-0.1-0.2-0.1-0.2-0.2S8.3 27.9 8.3 27.8zM10.8 27.8v-2.1c0-0.1 0-0.2 0.1-0.3 0.1-0.1 0.1-0.2 0.2-0.2 0.1-0.1 0.2-0.1 0.3-0.2 0.1 0 0.3-0.1 0.4-0.1 0.1 0 0.3 0 0.4 0.1 0.1 0 0.2 0.1 0.3 0.2 0.1 0.1 0.2 0.1 0.2 0.2 0.1 0.1 0.1 0.2 0.1 0.3v2.1c0 0.1 0 0.2-0.1 0.3 -0.1 0.1-0.1 0.2-0.2 0.2 -0.1 0.1-0.2 0.1-0.3 0.2 -0.1 0-0.3 0.1-0.4 0.1 -0.1 0-0.3 0-0.4-0.1 -0.1 0-0.2-0.1-0.3-0.2 -0.1-0.1-0.2-0.1-0.2-0.2C10.8 28 10.8 27.9 10.8 27.8zM13.3 27.8v-2.1c0-0.1 0-0.2 0.1-0.3 0.1-0.1 0.1-0.2 0.2-0.2 0.1-0.1 0.2-0.1 0.3-0.2 0.1 0 0.3-0.1 0.4-0.1 0.1 0 0.3 0 0.4 0.1 0.1 0 0.2 0.1 0.3 0.2 0.1 0.1 0.2 0.1 0.2 0.2 0.1 0.1 0.1 0.2 0.1 0.3v2.1c0 0.1 0 0.2-0.1 0.3 -0.1 0.1-0.1 0.2-0.2 0.2 -0.1 0.1-0.2 0.1-0.3 0.2 -0.1 0-0.3 0.1-0.4 0.1 -0.1 0-0.3 0-0.4-0.1 -0.1 0-0.2-0.1-0.3-0.2 -0.1-0.1-0.2-0.1-0.2-0.2C13.3 28 13.3 27.9 13.3 27.8zM18 16.9c0 1.3-1 2.3-2.3 2.3H8.6c-1.3 0-2.3-1-2.3-2.3v-5.7c0-1.3 1-2.3 2.3-2.3h7.1c1.3 0 2.3 1 2.3 2.3V16.9zM6.5 25c0.1 0 0.3-0.1 0.4-0.1 0.1 0 0.3 0 0.4 0.1 0.1 0 0.2 0.1 0.3 0.2 0.1 0.1 0.2 0.1 0.2 0.2 0.1 0.1 0.1 0.2 0.1 0.3v2.1c0 0.1 0 0.2-0.1 0.3 -0.1 0.1-0.1 0.2-0.2 0.2 -0.1 0.1-0.2 0.1-0.3 0.2 -0.1 0-0.3 0.1-0.4 0.1 -0.1 0-0.3 0-0.4-0.1 -0.1 0-0.2-0.1-0.3-0.2 -0.1-0.1-0.2-0.1-0.2-0.2 -0.1-0.1-0.1-0.2-0.1-0.3v-2.1c0-0.1 0-0.2 0.1-0.3s0.1-0.2 0.2-0.2C6.2 25.1 6.3 25 6.5 25zM30.8 27.8v-2.1c0-0.1 0-0.2 0.1-0.3 0.1-0.1 0.1-0.2 0.2-0.2 0.1-0.1 0.2-0.1 0.3-0.2 0.1 0 0.3-0.1 0.4-0.1 0.1 0 0.3 0 0.4 0.1 0.1 0 0.2 0.1 0.3 0.2 0.1 0.1 0.2 0.1 0.2 0.2 0.1 0.1 0.1 0.2 0.1 0.3v2.1c0 0.1 0 0.2-0.1 0.3 -0.1 0.1-0.1 0.2-0.2 0.2 -0.1 0.1-0.2 0.1-0.3 0.2 -0.1 0-0.3 0.1-0.4 0.1 -0.1 0-0.3 0-0.4-0.1 -0.1 0-0.2-0.1-0.3-0.2 -0.1-0.1-0.2-0.1-0.2-0.2C30.8 28 30.8 27.9 30.8 27.8zM33.3 27.8v-2.1c0-0.1 0-0.2 0.1-0.3 0.1-0.1 0.1-0.2 0.2-0.2 0.1-0.1 0.2-0.1 0.3-0.2 0.1 0 0.3-0.1 0.4-0.1 0.1 0 0.3 0 0.4 0.1 0.1 0 0.2 0.1 0.3 0.2 0.1 0.1 0.2 0.1 0.2 0.2 0.1 0.1 0.1 0.2 0.1 0.3v2.1c0 0.1 0 0.2-0.1 0.3 -0.1 0.1-0.1 0.2-0.2 0.2 -0.1 0.1-0.2 0.1-0.3 0.2 -0.1 0-0.3 0.1-0.4 0.1 -0.1 0-0.3 0-0.4-0.1 -0.1 0-0.2-0.1-0.3-0.2 -0.1-0.1-0.2-0.1-0.2-0.2C33.3 28 33.3 27.9 33.3 27.8zM35.8 27.8v-2.1c0-0.1 0-0.2 0.1-0.3 0.1-0.1 0.1-0.2 0.2-0.2 0.1-0.1 0.2-0.1 0.3-0.2 0.1 0 0.3-0.1 0.4-0.1 0.1 0 0.3 0 0.4 0.1 0.1 0 0.2 0.1 0.3 0.2 0.1 0.1 0.2 0.1 0.2 0.2 0.1 0.1 0.1 0.2 0.1 0.3v2.1c0 0.1 0 0.2-0.1 0.3 -0.1 0.1-0.1 0.2-0.2 0.2 -0.1 0.1-0.2 0.1-0.3 0.2 -0.1 0-0.3 0.1-0.4 0.1 -0.1 0-0.3 0-0.4-0.1 -0.1 0-0.2-0.1-0.3-0.2 -0.1-0.1-0.2-0.1-0.2-0.2C35.8 28 35.8 27.9 35.8 27.8zM38.3 27.8v-2.1c0-0.1 0-0.2 0.1-0.3 0.1-0.1 0.1-0.2 0.2-0.2 0.1-0.1 0.2-0.1 0.3-0.2 0.1 0 0.3-0.1 0.4-0.1 0.1 0 0.3 0 0.4 0.1 0.1 0 0.2 0.1 0.3 0.2 0.1 0.1 0.2 0.1 0.2 0.2 0.1 0.1 0.1 0.2 0.1 0.3v2.1c0 0.1 0 0.2-0.1 0.3 -0.1 0.1-0.1 0.2-0.2 0.2 -0.1 0.1-0.2 0.1-0.3 0.2 -0.1 0-0.3 0.1-0.4 0.1 -0.1 0-0.3 0-0.4-0.1 -0.1 0-0.2-0.1-0.3-0.2 -0.1-0.1-0.2-0.1-0.2-0.2C38.3 28 38.3 27.9 38.3 27.8zM43.3 27.8v-2.1c0-0.1 0-0.2 0.1-0.3s0.1-0.2 0.2-0.2c0.1-0.1 0.2-0.1 0.3-0.2 0.1 0 0.3-0.1 0.4-0.1 0.1 0 0.3 0 0.4 0.1 0.1 0 0.2 0.1 0.3 0.2 0.1 0.1 0.2 0.1 0.2 0.2 0.1 0.1 0.1 0.2 0.1 0.3v2.1c0 0.1 0 0.2-0.1 0.3 -0.1 0.1-0.1 0.2-0.2 0.2 -0.1 0.1-0.2 0.1-0.3 0.2 -0.1 0-0.3 0.1-0.4 0.1 -0.1 0-0.3 0-0.4-0.1 -0.1 0-0.2-0.1-0.3-0.2 -0.1-0.1-0.2-0.1-0.2-0.2S43.3 27.9 43.3 27.8zM52.9 27.8c0 0.1 0 0.2-0.1 0.3 -0.1 0.1-0.1 0.2-0.2 0.2 -0.1 0.1-0.2 0.1-0.3 0.2 -0.1 0-0.3 0.1-0.4 0.1 -0.1 0-0.3 0-0.4-0.1 -0.1 0-0.2-0.1-0.3-0.2 -0.1-0.1-0.2-0.1-0.2-0.2 -0.1-0.1-0.1-0.2-0.1-0.3v-2.1c0-0.1 0-0.2 0.1-0.3 0.1-0.1 0.1-0.2 0.2-0.2 0.1-0.1 0.2-0.1 0.3-0.2 0.1 0 0.3-0.1 0.4-0.1 0.1 0 0.3 0 0.4 0.1 0.1 0 0.2 0.1 0.3 0.2 0.1 0.1 0.2 0.1 0.2 0.2 0.1 0.1 0.1 0.2 0.1 0.3V27.8zM50.4 27.8c0 0.1 0 0.2-0.1 0.3 -0.1 0.1-0.1 0.2-0.2 0.2 -0.1 0.1-0.2 0.1-0.3 0.2 -0.1 0-0.3 0.1-0.4 0.1 -0.1 0-0.3 0-0.4-0.1 -0.1 0-0.2-0.1-0.3-0.2 -0.1-0.1-0.2-0.1-0.2-0.2 -0.1-0.1-0.1-0.2-0.1-0.3v-2.1c0-0.1 0-0.2 0.1-0.3 0.1-0.1 0.1-0.2 0.2-0.2 0.1-0.1 0.2-0.1 0.3-0.2 0.1 0 0.3-0.1 0.4-0.1 0.1 0 0.3 0 0.4 0.1 0.1 0 0.2 0.1 0.3 0.2 0.1 0.1 0.2 0.1 0.2 0.2 0.1 0.1 0.1 0.2 0.1 0.3V27.8zM47.9 27.8c0 0.1 0 0.2-0.1 0.3 -0.1 0.1-0.1 0.2-0.2 0.2 -0.1 0.1-0.2 0.1-0.3 0.2 -0.1 0-0.3 0.1-0.4 0.1 -0.1 0-0.3 0-0.4-0.1 -0.1 0-0.2-0.1-0.3-0.2 -0.1-0.1-0.2-0.1-0.2-0.2 -0.1-0.1-0.1-0.2-0.1-0.3v-2.1c0-0.1 0-0.2 0.1-0.3 0.1-0.1 0.1-0.2 0.2-0.2 0.1-0.1 0.2-0.1 0.3-0.2 0.1 0 0.3-0.1 0.4-0.1 0.1 0 0.3 0 0.4 0.1 0.1 0 0.2 0.1 0.3 0.2 0.1 0.1 0.2 0.1 0.2 0.2 0.1 0.1 0.1 0.2 0.1 0.3V27.8zM54.5 8.6H35.7c-0.4 0-0.8-0.3-0.8-0.8s0.3-0.8 0.8-0.8h18.8c0.4 0 0.8 0.3 0.8 0.8S54.9 8.6 54.5 8.6z" class="a"/><path d="M27.6 16.3l0 0c0 0.7-0.2 1.2-0.6 1.6 -0.4 0.4-0.9 0.5-1.6 0.5 -0.7 0-1.3-0.2-1.7-0.7 -0.4-0.4-0.7-1-0.7-1.7v-1.2c0-0.7 0.2-1.3 0.6-1.7 0.4-0.4 1-0.7 1.7-0.7 0.7 0 1.3 0.2 1.7 0.6 0.4 0.4 0.6 0.9 0.7 1.6l0 0h-1.3c0-0.4-0.1-0.7-0.3-0.8 -0.1-0.2-0.4-0.3-0.8-0.3 -0.3 0-0.5 0.1-0.7 0.4 -0.2 0.2-0.3 0.6-0.3 1v1.2c0 0.4 0.1 0.7 0.3 1 0.2 0.2 0.5 0.4 0.8 0.4 0.3 0 0.6-0.1 0.7-0.3 0.1-0.2 0.2-0.4 0.2-0.8H27.6z" class="b"/><path d="M29.7 16.1v2.2h-1.3V12.6h2.2c0.7 0 1.2 0.2 1.6 0.5 0.4 0.3 0.6 0.7 0.6 1.3 0 0.3-0.1 0.6-0.2 0.8s-0.4 0.4-0.7 0.5c0.4 0.1 0.6 0.3 0.8 0.5 0.2 0.2 0.2 0.5 0.2 0.9v0.4c0 0.2 0 0.3 0.1 0.5 0 0.2 0.1 0.3 0.2 0.4v0.1h-1.4c-0.1-0.1-0.2-0.2-0.2-0.4 0-0.2 0-0.4 0-0.6v-0.3c0-0.3-0.1-0.5-0.2-0.6 -0.1-0.1-0.4-0.2-0.6-0.2H29.7zM29.7 15.1h0.9c0.3 0 0.5-0.1 0.6-0.2 0.1-0.1 0.2-0.3 0.2-0.5 0-0.2-0.1-0.4-0.2-0.6s-0.4-0.2-0.6-0.2H29.7V15.1z" class="b"/><path d="M37.3 15.9h-2.3v1.4h2.7v1h-4V12.6h4v1h-2.7v1.2h2.3V15.9zM35.7 11.1h1.4l0 0 -1.1 1h-1.1L35.7 11.1z" class="b"/><path d="M38.4 18.3V12.6h2.1c0.7 0 1.3 0.2 1.7 0.7 0.5 0.4 0.7 1 0.7 1.7v1c0 0.7-0.2 1.3-0.7 1.7 -0.5 0.4-1 0.7-1.7 0.7H38.4zM39.7 13.6v3.7h0.7c0.4 0 0.6-0.1 0.8-0.4 0.2-0.2 0.3-0.6 0.3-1v-1c0-0.4-0.1-0.7-0.3-1 -0.2-0.2-0.5-0.4-0.8-0.4H39.7z" class="b"/><path d="M45.1 18.3h-1.3V12.6h1.3V18.3z" class="b"/><path d="M50 13.6H48.5v4.8h-1.3v-4.8H45.6V12.6h4.4V13.6z" class="b"/><path d="M55.2 16c0 0.7-0.2 1.3-0.7 1.8 -0.5 0.5-1 0.7-1.8 0.7 -0.7 0-1.3-0.2-1.8-0.7 -0.5-0.5-0.7-1-0.7-1.8v-1c0-0.7 0.2-1.3 0.7-1.8s1-0.7 1.8-0.7c0.7 0 1.3 0.2 1.8 0.7 0.5 0.5 0.7 1.1 0.7 1.8V16zM53.9 14.9c0-0.4-0.1-0.8-0.3-1 -0.2-0.3-0.5-0.4-0.8-0.4 -0.4 0-0.6 0.1-0.8 0.4 -0.2 0.3-0.3 0.6-0.3 1v1c0 0.4 0.1 0.8 0.3 1 0.2 0.3 0.5 0.4 0.8 0.4 0.4 0 0.6-0.1 0.8-0.4s0.3-0.6 0.3-1V14.9z" class="b"/></svg>
