<svg xmlns="http://www.w3.org/2000/svg" width="62" height="41" viewBox="309.6 174.3 62 40.7"><path d="M366.7 174.3h-52.2c-2.7 0-4.9 2.2-4.9 4.9v30.9c0 2.7 2.2 4.9 4.9 4.9h52.2c2.7 0 4.9-2.2 4.9-4.9v-30.9C371.6 176.5 369.4 174.3 366.7 174.3zM319.5 208.7h-2.3v-27.9h2.3V208.7zM325.6 208.7h-3v-27.9h3V208.7zM332.6 208.7h-4v-27.9h4V208.7zM335 208.7h-1.3v-27.9h1.3V208.7zM343.5 208.7h-1.3v-27.9h1.3V208.7zM346.6 208.7h-2v-27.9h2V208.7zM353.1 208.7h-2.5v-27.9h2.5V208.7zM358.4 208.7h-1.7v-27.9h1.7V208.7zM363.9 208.7h-1.7v-27.9h1.7V208.7z" fill="#303030"/></svg>
