<svg xmlns="http://www.w3.org/2000/svg" width="62" height="41" viewBox="309.6 174.3 62 40.7"><style>.a{fill:#303030;}.b{fill:#FFF;}</style><path d="M321.4 199.8c-0.1 0-0.2 0-0.2 0.1 -0.1 0.1-0.1 0.1-0.1 0.2v2.1c0 0.1 0 0.1 0.1 0.2 0.1 0.1 0.1 0.1 0.2 0.1 0.1 0 0.2 0 0.2-0.1 0.1 0 0.1-0.1 0.1-0.2v-2.1c0-0.1 0-0.1-0.1-0.2C321.6 199.8 321.5 199.8 321.4 199.8z" class="a"/><path d="M323.9 199.8c-0.1 0-0.2 0-0.2 0.1 -0.1 0.1-0.1 0.1-0.1 0.2v2.1c0 0.1 0 0.1 0.1 0.2 0.1 0.1 0.1 0.1 0.2 0.1 0.1 0 0.2 0 0.2-0.1 0.1 0 0.1-0.1 0.1-0.2v-2.1c0-0.1 0-0.1-0.1-0.2C324.1 199.8 324 199.8 323.9 199.8z" class="a"/><path d="M319.7 190.6c-0.2-0.6-0.4-1.1-0.5-1.7h-2.3v1.7H319.7z" class="a"/><path d="M319.1 186.1h-2.2v1.7h2.1C319 187.3 319 186.7 319.1 186.1z" class="a"/><path d="M316.4 202.4c0.1 0 0.2 0 0.2-0.1 0.1 0 0.1-0.1 0.1-0.2v-2.1c0-0.1 0-0.1-0.1-0.2 -0.1 0-0.1-0.1-0.2-0.1 -0.1 0-0.2 0-0.2 0.1 -0.1 0.1-0.1 0.1-0.1 0.2v2.1c0 0.1 0 0.1 0.1 0.2C316.2 202.4 316.3 202.4 316.4 202.4z" class="a"/><path d="M341.4 199.8c-0.1 0-0.2 0-0.2 0.1 -0.1 0.1-0.1 0.1-0.1 0.2v2.1c0 0.1 0 0.1 0.1 0.2 0.1 0.1 0.1 0.1 0.2 0.1 0.1 0 0.2 0 0.2-0.1 0.1 0 0.1-0.1 0.1-0.2v-2.1c0-0.1 0-0.1-0.1-0.2C341.6 199.8 341.5 199.8 341.4 199.8z" class="a"/><path d="M343.9 199.8c-0.1 0-0.2 0-0.2 0.1 -0.1 0.1-0.1 0.1-0.1 0.2v2.1c0 0.1 0 0.1 0.1 0.2 0.1 0.1 0.1 0.1 0.2 0.1 0.1 0 0.2 0 0.2-0.1 0.1 0 0.1-0.1 0.1-0.2v-2.1c0-0.1 0-0.1-0.1-0.2C344.1 199.8 344 199.8 343.9 199.8z" class="a"/><path d="M319.5 184.3h-1.3c-0.6 0-1 0.4-1.2 0.9h2.2C319.3 184.8 319.4 184.5 319.5 184.3z" class="a"/><path d="M318.9 199.8c-0.1 0-0.2 0-0.2 0.1 -0.1 0.1-0.1 0.1-0.1 0.2v2.1c0 0.1 0 0.1 0.1 0.2 0.1 0.1 0.1 0.1 0.2 0.1 0.1 0 0.2 0 0.2-0.1 0.1 0 0.1-0.1 0.1-0.2v-2.1c0-0.1 0-0.1-0.1-0.2C319.1 199.8 319 199.8 318.9 199.8z" class="a"/><path d="M326.5 185.1c-0.2-0.5-0.6-0.9-1.2-0.9h-1c0.1 0.2 0.2 0.5 0.2 0.9H326.5z" class="a"/><path d="M331.4 202.4c0.1 0 0.2 0 0.2-0.1 0.1 0 0.1-0.1 0.1-0.2v-2.1c0-0.1 0-0.1-0.1-0.2 -0.1 0-0.1-0.1-0.2-0.1 -0.1 0-0.2 0-0.2 0.1 -0.1 0.1-0.1 0.1-0.1 0.2v2.1c0 0.1 0 0.1 0.1 0.2C331.2 202.4 331.3 202.4 331.4 202.4z" class="a"/><path d="M333.9 202.4c0.1 0 0.2 0 0.2-0.1 0.1 0 0.1-0.1 0.1-0.2v-2.1c0-0.1 0-0.1-0.1-0.2 -0.1 0-0.1-0.1-0.2-0.1 -0.1 0-0.2 0-0.2 0.1 -0.1 0.1-0.1 0.1-0.1 0.2v2.1c0 0.1 0 0.1 0.1 0.2C333.7 202.4 333.8 202.4 333.9 202.4z" class="a"/><path d="M320.1 188.3c0.1 0.8 0.4 1.5 0.7 2.3h2c0.3-0.7 0.6-1.5 0.7-2.3 0.1-0.9 0.1-1.7 0-2.6 -0.1-0.6-0.3-1.1-0.4-1.5h-2.6c-0.1 0.4-0.3 0.8-0.4 1.5C320 186.6 320 187.4 320.1 188.3z" class="a"/><path d="M318.2 192.5h7.1c0.6 0 1-0.4 1.2-0.9h-9.5C317.1 192.1 317.6 192.5 318.2 192.5z" class="a"/><path d="M336.4 202.4c0.1 0 0.2 0 0.2-0.1 0.1 0 0.1-0.1 0.1-0.2v-2.1c0-0.1 0-0.1-0.1-0.2 -0.1 0-0.1-0.1-0.2-0.1 -0.1 0-0.2 0-0.2 0.1 -0.1 0.1-0.1 0.1-0.1 0.2v2.1c0 0.1 0 0.1 0.1 0.2C336.2 202.4 336.3 202.4 336.4 202.4z" class="a"/><path d="M346.4 199.8c-0.1 0-0.2 0-0.2 0.1 -0.1 0.1-0.1 0.1-0.1 0.2v2.1c0 0.1 0 0.1 0.1 0.2 0.1 0.1 0.1 0.1 0.2 0.1 0.1 0 0.2 0 0.2-0.1 0.1 0 0.1-0.1 0.1-0.2v-2.1c0-0.1 0-0.1-0.1-0.2C346.6 199.8 346.5 199.8 346.4 199.8z" class="a"/><path d="M324.6 187.9h1.9v-1.7h-1.9C324.7 186.7 324.7 187.3 324.6 187.9z" class="a"/><path d="M324 190.6h2.6v-1.7h-2.1C324.4 189.5 324.2 190 324 190.6z" class="a"/><path d="M328.9 202.4c0.1 0 0.2 0 0.2-0.1 0.1 0 0.1-0.1 0.1-0.2v-2.1c0-0.1 0-0.1-0.1-0.2 -0.1 0-0.1-0.1-0.2-0.1 -0.1 0-0.2 0-0.2 0.1 -0.1 0.1-0.1 0.1-0.1 0.2v2.1c0 0.1 0 0.1 0.1 0.2C328.7 202.4 328.8 202.4 328.9 202.4z" class="a"/><path d="M358.9 202.4c0.1 0 0.2 0 0.2-0.1 0.1 0 0.1-0.1 0.1-0.2v-2.1c0-0.1 0-0.1-0.1-0.2 -0.1 0-0.1-0.1-0.2-0.1 -0.1 0-0.2 0-0.2 0.1 -0.1 0.1-0.1 0.1-0.1 0.2v2.1c0 0.1 0 0.1 0.1 0.2C358.7 202.4 358.8 202.4 358.9 202.4z" class="a"/><path d="M353.9 202.4c0.1 0 0.2 0 0.2-0.1 0.1 0 0.1-0.1 0.1-0.2v-2.1c0-0.1 0-0.1-0.1-0.2 -0.1 0-0.1-0.1-0.2-0.1 -0.1 0-0.2 0-0.2 0.1 -0.1 0.1-0.1 0.1-0.1 0.2v2.1c0 0.1 0 0.1 0.1 0.2C353.7 202.4 353.8 202.4 353.9 202.4z" class="a"/><path d="M356.4 202.4c0.1 0 0.2 0 0.2-0.1 0.1 0 0.1-0.1 0.1-0.2v-2.1c0-0.1 0-0.1-0.1-0.2 -0.1 0-0.1-0.1-0.2-0.1 -0.1 0-0.2 0-0.2 0.1 -0.1 0.1-0.1 0.1-0.1 0.2v2.1c0 0.1 0 0.1 0.1 0.2C356.2 202.4 356.3 202.4 356.4 202.4z" class="a"/><path d="M363.1 207c-0.2 0.5-0.4 1-0.6 1.5 0.3 0 0.6 0 0.9 0 -0.1-0.5-0.2-1-0.3-1.5C363.1 207 363.1 207 363.1 207z" class="a"/><path d="M361.4 202.4c0.1 0 0.2 0 0.2-0.1 0.1 0 0.1-0.1 0.1-0.2v-2.1c0-0.1 0-0.1-0.1-0.2 -0.1 0-0.1-0.1-0.2-0.1 -0.1 0-0.2 0-0.2 0.1 -0.1 0.1-0.1 0.1-0.1 0.2v2.1c0 0.1 0 0.1 0.1 0.2C361.2 202.4 361.3 202.4 361.4 202.4z" class="a"/><path d="M348.9 199.8c-0.1 0-0.2 0-0.2 0.1 -0.1 0.1-0.1 0.1-0.1 0.2v2.1c0 0.1 0 0.1 0.1 0.2 0.1 0.1 0.1 0.1 0.2 0.1 0.1 0 0.2 0 0.2-0.1 0.1 0 0.1-0.1 0.1-0.2v-2.1c0-0.1 0-0.1-0.1-0.2C349.1 199.8 349 199.8 348.9 199.8z" class="a"/><path d="M366.7 174.3h-52.2c-2.7 0-4.9 2.2-4.9 4.9v30.9c0 2.7 2.2 4.9 4.9 4.9h52.2c2.7 0 4.9-2.2 4.9-4.9v-30.9C371.6 176.5 369.4 174.3 366.7 174.3zM337 207.1c0.4 0 0.8 0.3 0.8 0.8s-0.3 0.8-0.8 0.8h-20.8c-0.4 0-0.8-0.3-0.8-0.8s0.3-0.8 0.8-0.8H337zM327.9 202.1v-2.1c0-0.1 0-0.2 0.1-0.3 0.1-0.1 0.1-0.2 0.2-0.2s0.2-0.1 0.3-0.2c0.1 0 0.3-0.1 0.4-0.1 0.1 0 0.3 0 0.4 0.1 0.1 0 0.2 0.1 0.3 0.2 0.1 0.1 0.2 0.1 0.2 0.2 0.1 0.1 0.1 0.2 0.1 0.3v2.1c0 0.1 0 0.2-0.1 0.3 -0.1 0.1-0.1 0.2-0.2 0.2 -0.1 0.1-0.2 0.1-0.3 0.2 -0.1 0-0.3 0.1-0.4 0.1 -0.1 0-0.3 0-0.4-0.1 -0.1 0-0.2-0.1-0.3-0.2 -0.1-0.1-0.2-0.1-0.2-0.2C327.9 202.4 327.9 202.3 327.9 202.1zM330.4 202.1v-2.1c0-0.1 0-0.2 0.1-0.3 0.1-0.1 0.1-0.2 0.2-0.2 0.1-0.1 0.2-0.1 0.3-0.2 0.1 0 0.3-0.1 0.4-0.1 0.1 0 0.3 0 0.4 0.1 0.1 0 0.2 0.1 0.3 0.2 0.1 0.1 0.2 0.1 0.2 0.2 0.1 0.1 0.1 0.2 0.1 0.3v2.1c0 0.1 0 0.2-0.1 0.3 -0.1 0.1-0.1 0.2-0.2 0.2 -0.1 0.1-0.2 0.1-0.3 0.2 -0.1 0-0.3 0.1-0.4 0.1 -0.1 0-0.3 0-0.4-0.1 -0.1 0-0.2-0.1-0.3-0.2 -0.1-0.1-0.2-0.1-0.2-0.2C330.4 202.4 330.4 202.3 330.4 202.1zM332.9 202.1v-2.1c0-0.1 0-0.2 0.1-0.3 0.1-0.1 0.1-0.2 0.2-0.2 0.1-0.1 0.2-0.1 0.3-0.2 0.1 0 0.3-0.1 0.4-0.1 0.1 0 0.3 0 0.4 0.1 0.1 0 0.2 0.1 0.3 0.2 0.1 0.1 0.2 0.1 0.2 0.2 0.1 0.1 0.1 0.2 0.1 0.3v2.1c0 0.1 0 0.2-0.1 0.3 -0.1 0.1-0.1 0.2-0.2 0.2 -0.1 0.1-0.2 0.1-0.3 0.2 -0.1 0-0.3 0.1-0.4 0.1 -0.1 0-0.3 0-0.4-0.1 -0.1 0-0.2-0.1-0.3-0.2 -0.1-0.1-0.2-0.1-0.2-0.2C332.9 202.4 332.9 202.3 332.9 202.1zM335.4 202.1v-2.1c0-0.1 0-0.2 0.1-0.3 0.1-0.1 0.1-0.2 0.2-0.2 0.1-0.1 0.2-0.1 0.3-0.2 0.1 0 0.3-0.1 0.4-0.1 0.1 0 0.3 0 0.4 0.1 0.1 0 0.2 0.1 0.3 0.2 0.1 0.1 0.2 0.1 0.2 0.2 0.1 0.1 0.1 0.2 0.1 0.3v2.1c0 0.1 0 0.2-0.1 0.3 -0.1 0.1-0.1 0.2-0.2 0.2 -0.1 0.1-0.2 0.1-0.3 0.2 -0.1 0-0.3 0.1-0.4 0.1 -0.1 0-0.3 0-0.4-0.1 -0.1 0-0.2-0.1-0.3-0.2 -0.1-0.1-0.2-0.1-0.2-0.2C335.4 202.4 335.4 202.3 335.4 202.1zM317.9 202.1v-2.1c0-0.1 0-0.2 0.1-0.3 0.1-0.1 0.1-0.2 0.2-0.2s0.2-0.1 0.3-0.2c0.1 0 0.3-0.1 0.4-0.1 0.1 0 0.3 0 0.4 0.1 0.1 0 0.2 0.1 0.3 0.2 0.1 0.1 0.2 0.1 0.2 0.2 0.1 0.1 0.1 0.2 0.1 0.3v2.1c0 0.1 0 0.2-0.1 0.3 -0.1 0.1-0.1 0.2-0.2 0.2 -0.1 0.1-0.2 0.1-0.3 0.2 -0.1 0-0.3 0.1-0.4 0.1 -0.1 0-0.3 0-0.4-0.1 -0.1 0-0.2-0.1-0.3-0.2 -0.1-0.1-0.2-0.1-0.2-0.2C317.9 202.4 317.9 202.3 317.9 202.1zM320.4 202.1v-2.1c0-0.1 0-0.2 0.1-0.3 0.1-0.1 0.1-0.2 0.2-0.2 0.1-0.1 0.2-0.1 0.3-0.2 0.1 0 0.3-0.1 0.4-0.1 0.1 0 0.3 0 0.4 0.1 0.1 0 0.2 0.1 0.3 0.2 0.1 0.1 0.2 0.1 0.2 0.2 0.1 0.1 0.1 0.2 0.1 0.3v2.1c0 0.1 0 0.2-0.1 0.3 -0.1 0.1-0.1 0.2-0.2 0.2 -0.1 0.1-0.2 0.1-0.3 0.2 -0.1 0-0.3 0.1-0.4 0.1 -0.1 0-0.3 0-0.4-0.1 -0.1 0-0.2-0.1-0.3-0.2 -0.1-0.1-0.2-0.1-0.2-0.2C320.4 202.4 320.4 202.3 320.4 202.1zM322.9 202.1v-2.1c0-0.1 0-0.2 0.1-0.3 0.1-0.1 0.1-0.2 0.2-0.2 0.1-0.1 0.2-0.1 0.3-0.2 0.1 0 0.3-0.1 0.4-0.1 0.1 0 0.3 0 0.4 0.1 0.1 0 0.2 0.1 0.3 0.2 0.1 0.1 0.2 0.1 0.2 0.2 0.1 0.1 0.1 0.2 0.1 0.3v2.1c0 0.1 0 0.2-0.1 0.3 -0.1 0.1-0.1 0.2-0.2 0.2 -0.1 0.1-0.2 0.1-0.3 0.2 -0.1 0-0.3 0.1-0.4 0.1 -0.1 0-0.3 0-0.4-0.1 -0.1 0-0.2-0.1-0.3-0.2 -0.1-0.1-0.2-0.1-0.2-0.2C322.9 202.4 322.9 202.3 322.9 202.1zM327.6 191.2c0 1.3-1 2.3-2.3 2.3h-7.1c-1.3 0-2.3-1-2.3-2.3v-5.7c0-1.3 1-2.3 2.3-2.3h7.1c1.3 0 2.3 1 2.3 2.3V191.2zM316 199.3c0.1 0 0.3-0.1 0.4-0.1 0.1 0 0.3 0 0.4 0.1 0.1 0 0.2 0.1 0.3 0.2 0.1 0.1 0.2 0.1 0.2 0.2 0.1 0.1 0.1 0.2 0.1 0.3v2.1c0 0.1 0 0.2-0.1 0.3 -0.1 0.1-0.1 0.2-0.2 0.2 -0.1 0.1-0.2 0.1-0.3 0.2 -0.1 0-0.3 0.1-0.4 0.1 -0.1 0-0.3 0-0.4-0.1 -0.1 0-0.2-0.1-0.3-0.2 -0.1-0.1-0.2-0.1-0.2-0.2 -0.1-0.1-0.1-0.2-0.1-0.3v-2.1c0-0.1 0-0.2 0.1-0.3s0.1-0.2 0.2-0.2S315.9 199.4 316 199.3zM340.4 202.1v-2.1c0-0.1 0-0.2 0.1-0.3 0.1-0.1 0.1-0.2 0.2-0.2s0.2-0.1 0.3-0.2c0.1 0 0.3-0.1 0.4-0.1 0.1 0 0.3 0 0.4 0.1 0.1 0 0.2 0.1 0.3 0.2 0.1 0.1 0.2 0.1 0.2 0.2 0.1 0.1 0.1 0.2 0.1 0.3v2.1c0 0.1 0 0.2-0.1 0.3 -0.1 0.1-0.1 0.2-0.2 0.2 -0.1 0.1-0.2 0.1-0.3 0.2 -0.1 0-0.3 0.1-0.4 0.1 -0.1 0-0.3 0-0.4-0.1 -0.1 0-0.2-0.1-0.3-0.2 -0.1-0.1-0.2-0.1-0.2-0.2C340.4 202.4 340.4 202.3 340.4 202.1zM342.9 202.1v-2.1c0-0.1 0-0.2 0.1-0.3 0.1-0.1 0.1-0.2 0.2-0.2 0.1-0.1 0.2-0.1 0.3-0.2 0.1 0 0.3-0.1 0.4-0.1 0.1 0 0.3 0 0.4 0.1 0.1 0 0.2 0.1 0.3 0.2 0.1 0.1 0.2 0.1 0.2 0.2 0.1 0.1 0.1 0.2 0.1 0.3v2.1c0 0.1 0 0.2-0.1 0.3 -0.1 0.1-0.1 0.2-0.2 0.2 -0.1 0.1-0.2 0.1-0.3 0.2 -0.1 0-0.3 0.1-0.4 0.1 -0.1 0-0.3 0-0.4-0.1 -0.1 0-0.2-0.1-0.3-0.2 -0.1-0.1-0.2-0.1-0.2-0.2C342.9 202.4 342.9 202.3 342.9 202.1zM345.4 202.1v-2.1c0-0.1 0-0.2 0.1-0.3 0.1-0.1 0.1-0.2 0.2-0.2 0.1-0.1 0.2-0.1 0.3-0.2 0.1 0 0.3-0.1 0.4-0.1 0.1 0 0.3 0 0.4 0.1 0.1 0 0.2 0.1 0.3 0.2 0.1 0.1 0.2 0.1 0.2 0.2 0.1 0.1 0.1 0.2 0.1 0.3v2.1c0 0.1 0 0.2-0.1 0.3 -0.1 0.1-0.1 0.2-0.2 0.2 -0.1 0.1-0.2 0.1-0.3 0.2 -0.1 0-0.3 0.1-0.4 0.1 -0.1 0-0.3 0-0.4-0.1 -0.1 0-0.2-0.1-0.3-0.2 -0.1-0.1-0.2-0.1-0.2-0.2C345.4 202.4 345.4 202.3 345.4 202.1zM347.9 202.1v-2.1c0-0.1 0-0.2 0.1-0.3 0.1-0.1 0.1-0.2 0.2-0.2s0.2-0.1 0.3-0.2c0.1 0 0.3-0.1 0.4-0.1 0.1 0 0.3 0 0.4 0.1 0.1 0 0.2 0.1 0.3 0.2 0.1 0.1 0.2 0.1 0.2 0.2 0.1 0.1 0.1 0.2 0.1 0.3v2.1c0 0.1 0 0.2-0.1 0.3 -0.1 0.1-0.1 0.2-0.2 0.2 -0.1 0.1-0.2 0.1-0.3 0.2 -0.1 0-0.3 0.1-0.4 0.1 -0.1 0-0.3 0-0.4-0.1 -0.1 0-0.2-0.1-0.3-0.2 -0.1-0.1-0.2-0.1-0.2-0.2C347.9 202.4 347.9 202.3 347.9 202.1zM352.9 202.1v-2.1c0-0.1 0-0.2 0.1-0.3 0.1-0.1 0.1-0.2 0.2-0.2 0.1-0.1 0.2-0.1 0.3-0.2 0.1 0 0.3-0.1 0.4-0.1 0.1 0 0.3 0 0.4 0.1 0.1 0 0.2 0.1 0.3 0.2 0.1 0.1 0.2 0.1 0.2 0.2 0.1 0.1 0.1 0.2 0.1 0.3v2.1c0 0.1 0 0.2-0.1 0.3 -0.1 0.1-0.1 0.2-0.2 0.2 -0.1 0.1-0.2 0.1-0.3 0.2 -0.1 0-0.3 0.1-0.4 0.1 -0.1 0-0.3 0-0.4-0.1 -0.1 0-0.2-0.1-0.3-0.2 -0.1-0.1-0.2-0.1-0.2-0.2C352.9 202.4 352.9 202.3 352.9 202.1zM362.4 202.1c0 0.1 0 0.2-0.1 0.3 -0.1 0.1-0.1 0.2-0.2 0.2 -0.1 0.1-0.2 0.1-0.3 0.2 -0.1 0-0.3 0.1-0.4 0.1 -0.1 0-0.3 0-0.4-0.1 -0.1 0-0.2-0.1-0.3-0.2 -0.1-0.1-0.2-0.1-0.2-0.2 -0.1-0.1-0.1-0.2-0.1-0.3v-2.1c0-0.1 0-0.2 0.1-0.3 0.1-0.1 0.1-0.2 0.2-0.2s0.2-0.1 0.3-0.2c0.1 0 0.3-0.1 0.4-0.1 0.1 0 0.3 0 0.4 0.1 0.1 0 0.2 0.1 0.3 0.2 0.1 0.1 0.2 0.1 0.2 0.2 0.1 0.1 0.1 0.2 0.1 0.3V202.1zM359.9 202.1c0 0.1 0 0.2-0.1 0.3 -0.1 0.1-0.1 0.2-0.2 0.2 -0.1 0.1-0.2 0.1-0.3 0.2 -0.1 0-0.3 0.1-0.4 0.1 -0.1 0-0.3 0-0.4-0.1 -0.1 0-0.2-0.1-0.3-0.2 -0.1-0.1-0.2-0.1-0.2-0.2 -0.1-0.1-0.1-0.2-0.1-0.3v-2.1c0-0.1 0-0.2 0.1-0.3 0.1-0.1 0.1-0.2 0.2-0.2s0.2-0.1 0.3-0.2c0.1 0 0.3-0.1 0.4-0.1 0.1 0 0.3 0 0.4 0.1 0.1 0 0.2 0.1 0.3 0.2 0.1 0.1 0.2 0.1 0.2 0.2 0.1 0.1 0.1 0.2 0.1 0.3V202.1zM357.4 202.1c0 0.1 0 0.2-0.1 0.3 -0.1 0.1-0.1 0.2-0.2 0.2 -0.1 0.1-0.2 0.1-0.3 0.2 -0.1 0-0.3 0.1-0.4 0.1 -0.1 0-0.3 0-0.4-0.1 -0.1 0-0.2-0.1-0.3-0.2 -0.1-0.1-0.2-0.1-0.2-0.2 -0.1-0.1-0.1-0.2-0.1-0.3v-2.1c0-0.1 0-0.2 0.1-0.3 0.1-0.1 0.1-0.2 0.2-0.2s0.2-0.1 0.3-0.2c0.1 0 0.3-0.1 0.4-0.1 0.1 0 0.3 0 0.4 0.1 0.1 0 0.2 0.1 0.3 0.2 0.1 0.1 0.2 0.1 0.2 0.2 0.1 0.1 0.1 0.2 0.1 0.3V202.1zM364 182.9h-18.8c-0.4 0-0.8-0.3-0.8-0.8s0.3-0.8 0.8-0.8h18.8c0.4 0 0.8 0.3 0.8 0.8S364.4 182.9 364 182.9z" class="a"/><path d="M337.7 192.7v-5.8h2.1c0.7 0 1.3 0.2 1.7 0.7 0.5 0.4 0.7 1 0.7 1.7v1c0 0.7-0.2 1.3-0.7 1.7 -0.5 0.4-1 0.7-1.7 0.7H337.7zM339 187.9v3.7h0.7c0.4 0 0.6-0.1 0.8-0.4 0.2-0.2 0.3-0.6 0.3-1v-1c0-0.4-0.1-0.7-0.3-1 -0.2-0.2-0.5-0.4-0.8-0.4H339z" class="b"/><path d="M346.6 190.2h-2.3v1.4h2.7v1h-4v-5.8h4v1h-2.7v1.2h2.3V190.2zM345 185.4h1.4l0 0 -1.1 1h-1.1L345 185.4z" class="b"/><path d="M347.6 192.7v-5.8h2c0.7 0 1.3 0.1 1.7 0.4 0.4 0.3 0.6 0.7 0.6 1.2 0 0.3-0.1 0.5-0.2 0.7 -0.1 0.2-0.3 0.4-0.6 0.5 0.3 0.1 0.6 0.2 0.8 0.5 0.2 0.2 0.2 0.5 0.2 0.8 0 0.6-0.2 1-0.6 1.3 -0.4 0.3-0.9 0.4-1.6 0.4H347.6zM349 189.3h0.7c0.3 0 0.5-0.1 0.7-0.2 0.2-0.1 0.2-0.3 0.2-0.5 0-0.2-0.1-0.4-0.2-0.5 -0.2-0.1-0.4-0.2-0.7-0.2h-0.6V189.3zM349 190.2v1.5h0.9c0.3 0 0.5-0.1 0.6-0.2s0.2-0.3 0.2-0.5c0-0.3-0.1-0.4-0.2-0.6s-0.3-0.2-0.6-0.2H349z" class="b"/><path d="M354.3 192.7h-1.3v-5.8h1.3V192.7z" class="b"/><path d="M359.2 187.9h-1.5v4.8h-1.3v-4.8h-1.5v-1h4.4V187.9z" class="b"/><path d="M364.4 190.3c0 0.7-0.2 1.3-0.7 1.8 -0.5 0.5-1 0.7-1.8 0.7 -0.7 0-1.3-0.2-1.8-0.7 -0.5-0.5-0.7-1-0.7-1.8v-1c0-0.7 0.2-1.3 0.7-1.8s1-0.7 1.8-0.7c0.7 0 1.3 0.2 1.8 0.7 0.5 0.5 0.7 1.1 0.7 1.8V190.3zM363.1 189.3c0-0.4-0.1-0.8-0.3-1 -0.2-0.3-0.5-0.4-0.8-0.4 -0.4 0-0.6 0.1-0.8 0.4 -0.2 0.3-0.3 0.6-0.3 1v1c0 0.4 0.1 0.8 0.3 1 0.2 0.3 0.5 0.4 0.8 0.4 0.4 0 0.6-0.1 0.8-0.4s0.3-0.6 0.3-1V189.3z" class="b"/></svg>
