<?xml version="1.0" encoding="utf-8"?>
<!-- Generator: Adobe Illustrator 22.0.0, SVG Export Plug-In . SVG Version: 6.00 Build 0)  -->
<svg version="1.1" id="Layer_1" xmlns="http://www.w3.org/2000/svg" xmlns:xlink="http://www.w3.org/1999/xlink" x="0px" y="0px"
	 viewBox="0 0 155.1 41" style="enable-background:new 0 0 155.1 41;" xml:space="preserve">
<style type="text/css">
	.st0{clip-path:url(#SVGID_2_);fill:#FFFFFF;}
	.st1{fill:#FFFFFF;}
</style>
<g>
	<g>
		<g>
			<defs>
				<rect id="SVGID_1_" width="31.7" height="41"/>
			</defs>
			<clipPath id="SVGID_2_">
				<use xlink:href="#SVGID_1_"  style="overflow:visible;"/>
			</clipPath>
			<path class="st0" d="M27.7,4.5L27.7,4.5c-2.9,0.3-6,0-8.5-1.4c-1.5-0.8-2.3-1.9-3.4-3.1c0.4,0.5-2.6,2.6-2.9,2.9
				c-1.7,1.3-4,1.9-6.1,1.9c-1.1,0-2.2-0.1-3.3-0.2C3.1,4.5,0,4,0,3.8c0,6.2,0.1,12.5,0.1,18.7v1.5c0.4,1.8,1.1,3.7,2.5,5.6
				c1.3,1.8,3,3.7,5.2,5.6c3.2,2.7,6.1,4.5,6.2,4.6l1.7,1.1l1.7-1.1c0.1-0.1,3.1-1.9,6.2-4.6c2.2-1.9,4-3.8,5.4-5.6
				c1.3-1.9,2.3-3.7,2.6-5.5V3.9C31.7,4.1,28.1,4.4,27.7,4.5 M29.6,23.5c-0.6,3.1-3,6.4-7.1,10.1c-3,2.6-5.9,4.3-6,4.4l-0.7,0.4
				L15.1,38c-0.1-0.1-3-1.8-6-4.4c-4.2-3.6-6.5-7-7.1-10c0,0,0.1-17.1,0.1-17.2c0,0.6,4.3,0.4,4.7,0.4c3.4-0.2,6.4-1.2,8.9-3.5
				c-0.1,0.2,2.3,1.7,2.6,1.8c3.4,1.8,7.6,1.9,11.3,1.2L29.6,23.5z"/>
			<polygon class="st0" points="13.4,22.9 8.6,18.1 6.2,20.5 11,25.3 13.4,27.7 15.8,25.3 25.4,15.7 23,13.3 			"/>
		</g>
	</g>
	<g>
		<path class="st1" d="M46.1,16.2l4-13.9h2l4,13.9h-1.4l-1.2-4.4h-4.7l-1.2,4.4H46.1z M49.1,10.7h4l-2-7.2L49.1,10.7z"/>
		<path class="st1" d="M57.4,16.2V2.4h2.5l3,10.7H63l3-10.7h2.5v13.9H67V3.6h-0.1l-3.5,12.6h-1L58.9,3.6h-0.1v12.6H57.4z"/>
		<path class="st1" d="M70.9,16.2V2.4h4.3c1.1,0,2,0.3,2.8,1s1.1,1.4,1.1,2.4c0,1.6-0.5,2.6-1.6,3c-0.2,0.1-0.4,0.2-0.7,0.2
			c1,0.3,1.8,0.9,2.3,1.8c0.3,0.5,0.4,1.1,0.4,1.8c0,1.1-0.4,2.1-1.1,2.7c-0.7,0.7-1.8,1-3.1,1H70.9z M72.2,8.4h3
			c0.9,0,1.5-0.2,1.9-0.7c0.2-0.2,0.3-0.4,0.5-0.8c0.1-0.4,0.2-0.8,0.2-1.3c0-0.7-0.2-1.3-0.7-1.6c-0.4-0.4-1.1-0.6-2-0.6h-3V8.4z
			 M72.2,15.1h3c1,0,1.7-0.2,2.2-0.6c0.2-0.2,0.4-0.4,0.5-0.8c0.1-0.3,0.2-0.7,0.2-1.2c0-0.9-0.3-1.6-0.8-2.1
			c-0.5-0.5-1.2-0.8-2.1-0.8h-3V15.1z"/>
		<path class="st1" d="M81.2,16.2V2.4h1.4v13.9H81.2z"/>
		<path class="st1" d="M85.1,16.2V2.4h7.5v1.1h-6.2v4.9h4.4v1.1h-4.4V15H93v1.2H85.1z"/>
		<path class="st1" d="M94.7,16.2V2.4h2.2l5.6,10.6V2.4h1.4v13.9h-1.2L96.1,3.7v12.5H94.7z"/>
		<path class="st1" d="M105.3,3.5V2.4h9.3v1.1h-4v12.8h-1.4V3.5H105.3z"/>
		<path class="st1" d="M116,16.2V2.4h7.5v1.1h-6.2v4.9h4.4v1.1h-4.4V15h6.5v1.2H116z"/>
	</g>
	<g>
		<path class="st1" d="M46.7,25.6l3.1-1.1h1.6v12h2.1v2.1h-6.6v-2.1h2.3v-9.9l-1.8,0.5L46.7,25.6z"/>
		<path class="st1" d="M54.9,31.8c0-0.5,0-0.9,0.1-1.4c0-0.4,0.1-0.9,0.2-1.4c0.1-0.5,0.2-1,0.4-1.4c0.2-0.4,0.4-0.9,0.6-1.3
			c0.3-0.4,0.6-0.8,0.9-1c0.7-0.6,1.6-1,2.7-1c1.4,0,2.5,0.7,3.4,2c0.8,1.4,1.3,3.2,1.3,5.4c0,3-0.7,5.1-2.1,6.3
			c-0.7,0.5-1.5,0.8-2.5,0.8c-1.5,0-2.6-0.6-3.5-1.7C55.4,35.8,54.9,34.1,54.9,31.8z M62.2,31.7c0-3.6-0.8-5.5-2.4-5.5
			c-1.4,0-2.2,1.1-2.5,3.4c-0.1,0.7-0.1,1.3-0.1,1.9s0,1.1,0.1,1.5c0,0.4,0.1,0.8,0.2,1.2c0.1,0.4,0.2,0.8,0.3,1.1s0.3,0.6,0.5,0.8
			c0.4,0.5,0.9,0.8,1.6,0.8c0.7,0,1.3-0.3,1.7-0.8c0.2-0.4,0.4-0.7,0.5-1.1c0.1-0.3,0.1-0.6,0.2-0.9c0-0.2,0.1-0.5,0.1-0.8
			C62.2,33,62.2,32.4,62.2,31.7z"/>
		<path class="st1" d="M65.6,31.8c0-0.5,0-0.9,0.1-1.4c0-0.4,0.1-0.9,0.2-1.4c0.1-0.5,0.2-1,0.4-1.4c0.2-0.4,0.4-0.9,0.6-1.3
			c0.3-0.4,0.6-0.8,0.9-1c0.7-0.6,1.6-1,2.7-1c1.4,0,2.5,0.7,3.4,2c0.8,1.4,1.3,3.2,1.3,5.4c0,3-0.7,5.1-2.1,6.3
			c-0.7,0.5-1.5,0.8-2.5,0.8c-1.5,0-2.6-0.6-3.5-1.7C66.1,35.8,65.6,34.1,65.6,31.8z M72.9,31.7c0-3.6-0.8-5.5-2.4-5.5
			c-1.4,0-2.2,1.1-2.5,3.4c-0.1,0.7-0.1,1.3-0.1,1.9s0,1.1,0.1,1.5c0,0.4,0.1,0.8,0.2,1.2c0.1,0.4,0.2,0.8,0.3,1.1
			c0.1,0.3,0.3,0.6,0.5,0.8c0.4,0.5,0.9,0.8,1.6,0.8c0.7,0,1.3-0.3,1.7-0.8c0.2-0.4,0.4-0.7,0.5-1.1c0.1-0.3,0.1-0.6,0.2-0.9
			c0-0.2,0.1-0.5,0.1-0.8C72.9,33,72.9,32.4,72.9,31.7z"/>
		<path class="st1" d="M75.9,38.5l8.3-14.6l1.7,1l-8.5,14.5L75.9,38.5z M77,29c-0.5-0.5-0.8-1.2-0.8-1.9s0.3-1.4,0.8-1.9
			c0.5-0.5,1.2-0.8,1.9-0.8s1.4,0.3,1.9,0.8c0.5,0.5,0.8,1.2,0.8,1.9s-0.3,1.4-0.8,1.9c-0.5,0.5-1.2,0.8-1.9,0.8S77.5,29.5,77,29z
			 M78,26.2c-0.2,0.2-0.4,0.6-0.4,0.9s0.1,0.7,0.4,0.9c0.2,0.2,0.6,0.4,0.9,0.4c0.4,0,0.7-0.1,0.9-0.4c0.2-0.2,0.4-0.6,0.4-0.9
			s-0.1-0.7-0.4-0.9c-0.2-0.2-0.6-0.4-0.9-0.4C78.5,25.8,78.2,26,78,26.2z M81,38.1c-0.5-0.5-0.8-1.2-0.8-1.9c0-0.7,0.3-1.4,0.8-1.9
			c0.5-0.5,1.2-0.8,1.9-0.8s1.4,0.3,1.9,0.8c0.5,0.5,0.8,1.2,0.8,1.9c0,0.7-0.3,1.4-0.8,1.9c-0.5,0.5-1.2,0.8-1.9,0.8
			S81.5,38.6,81,38.1z M82,35.3c-0.2,0.2-0.4,0.6-0.4,0.9c0,0.4,0.1,0.7,0.4,0.9c0.2,0.2,0.6,0.4,0.9,0.4c0.4,0,0.7-0.1,0.9-0.4
			c0.2-0.2,0.4-0.6,0.4-0.9c0-0.4-0.1-0.7-0.4-0.9c-0.2-0.2-0.6-0.4-0.9-0.4C82.5,34.9,82.2,35.1,82,35.3z"/>
		<path class="st1" d="M90.8,35.1l1.8-0.6c0,0,0,0,0,0.1s0.1,0.2,0.1,0.4c0,0.2,0.1,0.3,0.2,0.5c0.1,0.2,0.2,0.4,0.4,0.6
			c0.2,0.2,0.4,0.4,0.6,0.5c0.5,0.3,1.1,0.5,1.8,0.5s1.3-0.2,1.6-0.5c0.3-0.4,0.5-0.8,0.5-1.3s-0.1-0.9-0.1-1.2
			c-0.1-0.3-0.3-0.6-0.5-0.8c-0.4-0.4-1.1-0.7-2.2-1c-1.8-0.5-3-1.3-3.5-2.5c-0.3-0.6-0.4-1.3-0.4-2c0-0.7,0.2-1.3,0.7-1.9
			c0.8-1,2-1.6,3.5-1.6c1.2,0,2.2,0.4,2.9,1.1c0.5,0.5,0.9,1.1,1.2,1.9l0.2,0.5c0.1,0.1,0.1,0.2,0.1,0.3l-1.8,0.6
			c-0.4-1.3-1.1-2.1-1.9-2.4c-0.2-0.1-0.4-0.1-0.7-0.1c-1.3,0-1.9,0.7-1.9,2c0,0.6,0.2,1.1,0.5,1.4c0.3,0.3,0.7,0.5,1.2,0.7l0.4,0.1
			c0.3,0.1,0.4,0.1,0.4,0.1l0.4,0.1c1.1,0.4,1.8,0.7,2.2,1c0.5,0.4,0.9,0.8,1.1,1.2c0.3,0.7,0.5,1.5,0.5,2.3c0,0.6-0.2,1.3-0.5,1.9
			c-0.5,0.9-1.3,1.5-2.3,1.7c-0.4,0.1-0.8,0.2-1.3,0.2c-0.5,0-0.9,0-1.3-0.1c-0.4-0.1-0.8-0.2-1.1-0.4c-0.3-0.1-0.6-0.3-0.8-0.5
			c-0.3-0.2-0.5-0.4-0.6-0.6c-0.2-0.2-0.3-0.4-0.5-0.6c-0.1-0.2-0.2-0.4-0.3-0.6c-0.1-0.2-0.1-0.4-0.2-0.5c0-0.1-0.1-0.3-0.1-0.4
			C90.8,35.1,90.8,35.1,90.8,35.1z"/>
		<path class="st1" d="M101.4,38.7V24.6h8.1v1.9h-5.9v3.9h4.1v1.9h-4.1v4.5h6.2v2H101.4z"/>
		<path class="st1" d="M118.7,29c-0.4-1.9-1.3-2.9-2.5-2.9c-1.4,0-2.3,0.8-2.9,2.3c-0.3,0.9-0.5,1.9-0.5,3c0,2.8,0.6,4.5,1.8,5.2
			c0.3,0.2,0.7,0.3,1.1,0.3c0.4,0,0.7,0,1-0.1c0.3-0.1,0.5-0.2,0.7-0.3c0.2-0.1,0.3-0.3,0.5-0.5c0.1-0.2,0.2-0.4,0.3-0.6
			c0.1-0.2,0.1-0.4,0.2-0.7c0.1-0.4,0.1-0.9,0.1-1.5h-2.7v-1.9h4.9v7.1h-1.8v-1.1c-0.4,0.5-0.8,0.8-1.3,1c-0.5,0.2-1.1,0.3-1.8,0.3
			c-0.7,0-1.3-0.1-1.8-0.4c-0.6-0.3-1-0.6-1.4-1.1c-0.4-0.5-0.8-1-1.1-1.7c-0.6-1.3-0.9-2.7-0.9-4.2c0-1.5,0.3-2.9,0.8-4.1
			c0.6-1.3,1.5-2.2,2.6-2.7c0.6-0.3,1.2-0.4,1.7-0.4c0.6,0,1,0,1.3,0.1c0.3,0.1,0.7,0.2,1,0.4c0.3,0.2,0.7,0.5,0.9,0.8
			c0.6,0.7,1.1,1.7,1.5,3.1L118.7,29z"/>
		<path class="st1" d="M122.9,34.5v-10h2.2V34c0,1.6,0.5,2.6,1.5,2.9c0.3,0.1,0.6,0.1,0.9,0.1s0.6,0,0.9-0.1
			c0.3-0.1,0.5-0.2,0.6-0.3c0.2-0.1,0.3-0.3,0.4-0.5c0.1-0.2,0.2-0.4,0.3-0.6s0.1-0.4,0.1-0.6c0-0.3,0.1-0.6,0.1-1v-9.4h2.3v10
			c0,1.4-0.5,2.6-1.4,3.4c-0.8,0.7-1.9,1-3.3,1c-2.1,0-3.5-0.8-4.2-2.4C123.1,35.9,122.9,35.2,122.9,34.5z"/>
		<path class="st1" d="M134.4,38.7V24.6h4.8c2.2,0,3.6,0.8,4.1,2.3c0.2,0.5,0.3,0.9,0.3,1.4c0,0.5-0.1,0.9-0.2,1.3
			c-0.1,0.4-0.3,0.8-0.5,1.1c-0.5,0.7-1.2,1.2-2.1,1.4l2.6,6.5h-2.3l-2.4-6.1h-2.1v6.1H134.4z M136.7,30.7h2.4
			c0.7,0,1.2-0.2,1.6-0.5c0.5-0.4,0.7-1,0.7-1.7c0-1.3-1-2-3.1-2h-1.6V30.7z"/>
		<path class="st1" d="M144.4,33.1c-0.1-0.5-0.1-0.9-0.1-1.4c0-0.5,0-0.9,0.1-1.4c0.1-0.5,0.1-1,0.3-1.4c0.1-0.5,0.3-1,0.5-1.4
			c0.2-0.4,0.4-0.8,0.7-1.2c0.3-0.4,0.6-0.7,1-1c0.8-0.6,1.8-0.9,2.9-0.9c1.6,0,2.8,0.6,3.7,1.9c1,1.4,1.5,3.2,1.5,5.5
			c0,2.3-0.5,4.1-1.5,5.4c-0.9,1.2-2.2,1.8-3.8,1.8c-1.5,0-2.8-0.6-3.8-1.9C145.2,36,144.7,34.7,144.4,33.1z M146.7,29.7
			c-0.1,0.4-0.1,0.7-0.1,1s0,0.7,0,1c0,0.3,0,0.7,0,1c0,0.3,0.1,0.7,0.1,1c0.1,0.4,0.1,0.7,0.2,1c0.1,0.3,0.2,0.6,0.4,0.9
			c0.2,0.3,0.4,0.5,0.6,0.7c0.5,0.4,1.1,0.7,1.8,0.7c2,0,3-1.8,3-5.4c0-2.9-0.7-4.7-2.1-5.3c-0.3-0.1-0.6-0.2-1-0.2
			c-0.4,0-0.7,0.1-1,0.2s-0.6,0.3-0.8,0.5c-0.2,0.2-0.4,0.5-0.6,0.8c-0.2,0.3-0.3,0.6-0.4,0.9C146.9,28.9,146.8,29.3,146.7,29.7z"/>
	</g>
</g>
</svg>
