<?xml version="1.0" encoding="UTF-8" standalone="no"?>
<svg
   xmlns:dc="http://purl.org/dc/elements/1.1/"
   xmlns:cc="http://creativecommons.org/ns#"
   xmlns:rdf="http://www.w3.org/1999/02/22-rdf-syntax-ns#"
   xmlns:svg="http://www.w3.org/2000/svg"
   xmlns="http://www.w3.org/2000/svg"
   viewBox="0 0 53.333332 54.666668"
   height="54.666668"
   width="53.333332"
   xml:space="preserve"
   id="svg2"
   version="1.1"><metadata
     id="metadata8"><rdf:RDF><cc:Work
         rdf:about=""><dc:format>image/svg+xml</dc:format><dc:type
           rdf:resource="http://purl.org/dc/dcmitype/StillImage" /></cc:Work></rdf:RDF></metadata><defs
     id="defs6" /><g
     transform="matrix(1.3333333,0,0,-1.3333333,0,54.666667)"
     id="g10"><g
       transform="scale(0.1)"
       id="g12"><path
         id="path14"
         style="fill:#ff9c00;fill-opacity:1;fill-rule:nonzero;stroke:none"
         d="m 390.859,227.68 c 7.852,7.66 10.621,18.91 7.231,29.379 -3.399,10.429 -12.231,17.89 -23.129,19.492 l -96.723,14.058 c -4.136,0.59 -7.687,3.172 -9.527,6.922 l -43.242,87.649 c -4.879,9.851 -14.731,15.98 -25.699,15.98 -10.981,0 -20.821,-6.129 -25.711,-15.98 L 130.82,297.531 c -1.84,-3.75 -5.429,-6.332 -9.531,-6.922 L 24.5703,276.551 C 13.6719,274.949 4.80078,267.488 1.41016,257.059 -1.94922,246.59 0.820313,235.34 8.67188,227.68 L 78.6719,159.441 c 2.9687,-2.89 4.3398,-7.113 3.6289,-11.211 L 65.7813,51.8984 c -1.8321,-10.8203 2.5,-21.5586 11.4101,-28.0078 8.8594,-6.4804 20.4297,-7.3008 30.1486,-2.1797 l 86.531,45.4688 c 3.707,1.9492 8.078,1.9492 11.789,0 l 86.531,-45.4688 c 4.219,-2.2304 8.789,-3.3203 13.321,-3.3203 5.937,0 11.789,1.8282 16.828,5.5 8.91,6.4492 13.25,17.1875 11.41,28.0078 L 317.23,148.23 c -0.71,4.098 0.661,8.282 3.629,11.211 z m -89.41,-82.141 16.52,-96.3281 c 0.82,-4.8515 -1.059,-9.4921 -5.039,-12.3906 -3.981,-2.8906 -8.95,-3.2422 -13.321,-0.9687 L 213.09,81.3594 c -4.141,2.1797 -8.75,3.2812 -13.32,3.2812 -4.571,0 -9.18,-1.1015 -13.36,-3.2812 L 99.9219,35.8516 c -4.3711,-2.2735 -9.3321,-1.9219 -13.3203,0.9687 -3.9805,2.8985 -5.8633,7.5 -5.043,12.3906 l 16.5312,96.3281 c 1.6016,9.289 -1.4882,18.781 -8.25,25.352 l -70,68.238 c -3.5117,3.441 -4.7187,8.281 -3.1992,12.973 1.5196,4.687 5.3477,7.886 10.1992,8.628 l 96.7502,14.02 c 9.34,1.371 17.39,7.23 21.57,15.711 l 43.238,87.648 c 2.192,4.422 6.442,7.032 11.372,7.032 4.921,0 9.14,-2.61 11.32,-7.032 l 43.289,-87.648 c 4.141,-8.481 12.223,-14.34 21.562,-15.711 l 96.719,-14.02 c 4.879,-0.742 8.711,-3.941 10.231,-8.628 1.488,-4.692 0.308,-9.532 -3.2,-12.973 l -70,-68.238 c -6.761,-6.571 -9.851,-16.063 -8.242,-25.352 z" /></g></g></svg>
